<?xml version="1.0" encoding="UTF-8"?>
<svg version="1.1" xmlns="http://www.w3.org/2000/svg" width="224" height="224">
<path d="M0 0 C73.92 0 147.84 0 224 0 C224 73.92 224 147.84 224 224 C150.08 224 76.16 224 0 224 C0 150.08 0 76.16 0 0 Z " fill="#FEFEFE" transform="translate(0,0)"/>
<path d="M0 0 C8.82707209 6.25647637 16.67704279 13.87338414 21.0625 23.875 C21.44019531 24.71160156 21.81789063 25.54820313 22.20703125 26.41015625 C27.80122617 39.515991 28.14661389 56.47962191 23.0625 69.875 C16.48858565 84.60543771 7.04243364 95.53759626 -8.15039062 101.44458008 C-24.15115167 107.40511652 -39.10390306 107.69257382 -54.9375 100.875 C-70.23447199 92.69608209 -80.35111405 80.01437636 -85.69140625 63.55078125 C-87.00438693 58.1427699 -87.13210595 52.72571392 -87.1875 47.1875 C-87.19692627 46.4744873 -87.20635254 45.76147461 -87.21606445 45.02685547 C-87.12855698 30.81762291 -79.49658855 17.78431659 -69.9140625 7.7578125 C-51.01061917 -10.3267091 -22.38146486 -13.26901131 0 0 Z " fill="#F9AB03" transform="translate(182.9375,63.125)"/>
<path d="M0 0 C1.31267224 1.0364365 2.61434345 2.08838486 3.875 3.1875 C2.58575644 6.58952433 1.1097924 9.69314554 -0.7265625 12.83203125 C-1.21640625 13.67314453 -1.70625 14.51425781 -2.2109375 15.38085938 C-2.97277344 16.67733398 -2.97277344 16.67733398 -3.75 18 C-4.265625 18.88365234 -4.78125 19.76730469 -5.3125 20.67773438 C-6.58031114 22.84944789 -7.85122348 25.0192818 -9.125 27.1875 C-12.1384205 26.05045639 -14.49122239 24.94086043 -17.1875 23.125 C-23.67731109 18.8444863 -31.62056266 19.518017 -39.125 20.1875 C-46.51856584 22.47394955 -53.5406922 28.53921483 -57.2890625 35.28125 C-60.30898367 43.07095321 -60.32483575 51.75730376 -57.4375 59.5625 C-54.43963723 66.12624165 -50.54752795 70.66140623 -44.125 74.1875 C-34.86244727 77.32734838 -25.05423474 77.48143783 -16.125 73.1875 C-13.27899323 71.12962485 -13.27899323 71.12962485 -11.125 69.1875 C-10.465 69.1875 -9.805 69.1875 -9.125 69.1875 C-7.13788402 72.59960201 -5.16171399 76.01791936 -3.1875 79.4375 C-2.62353516 80.40558594 -2.05957031 81.37367188 -1.47851562 82.37109375 C-0.94033203 83.30566406 -0.40214844 84.24023438 0.15234375 85.203125 C0.64984131 86.06196289 1.14733887 86.92080078 1.65991211 87.80566406 C2.7608955 89.96383041 3.41278404 91.82133748 3.875 94.1875 C-9.58536457 103.26304884 -23.95702972 106.8379803 -40.125 105.1875 C-44.35743021 104.28200411 -48.164673 102.91946862 -52.125 101.1875 C-53.63707031 100.55134766 -53.63707031 100.55134766 -55.1796875 99.90234375 C-67.12705763 94.44546605 -74.77450578 86.56758565 -81.125 75.1875 C-81.74181641 74.135625 -81.74181641 74.135625 -82.37109375 73.0625 C-88.81062962 61.36283043 -89.69996961 43.44859506 -86.02734375 30.7421875 C-83.42297543 23.30517779 -79.47039635 16.93818254 -74.125 11.1875 C-73.4340625 10.41792969 -72.743125 9.64835937 -72.03125 8.85546875 C-53.87551211 -10.4190206 -22.30104836 -15.56328482 0 0 Z " fill="#E8720B" transform="translate(103.125,63.8125)"/>
<path d="M0 0 C9.99989587 8.09507288 15.58961051 19.13019589 17 32 C17.90729531 49.7794985 15.00824628 64.78103329 3.1875 78.875 C-7.49739566 90.00764367 -22.70741022 96.97130659 -38.1875 97.375 C-52.98939711 97.42964475 -67.00710127 92.60693741 -77.8203125 82.2578125 C-78.20960937 81.84273438 -78.59890625 81.42765625 -79 81 C-77.5735422 77.7413364 -75.83295838 75.5975146 -73.3046875 73.109375 C-72.23154297 72.04589844 -72.23154297 72.04589844 -71.13671875 70.9609375 C-70.39035156 70.23132813 -69.64398438 69.50171875 -68.875 68.75 C-68.12089844 68.00492187 -67.36679688 67.25984375 -66.58984375 66.4921875 C-64.73099228 64.6568658 -62.86762995 62.8263809 -61 61 C-58.99389989 62.00069915 -56.99099555 63.0046605 -55 64.03515625 C-54.01 64.54369141 -54.01 64.54369141 -53 65.0625 C-52.01 65.57490234 -52.01 65.57490234 -51 66.09765625 C-44.60920609 68.98100272 -37.41949204 69.17768484 -30.82421875 66.90625 C-22.47059877 62.99471686 -17.53226937 58.70152576 -13.625 50.375 C-11.13816973 43.47063578 -10.4812737 36.04089677 -13.09375 29.08984375 C-13.94671371 27.40623224 -14.84724353 25.74525524 -15.80859375 24.12109375 C-17.05078678 21.90958288 -17.78055889 20.52848128 -18 18 C-16.46118164 15.89355469 -16.46118164 15.89355469 -14.16015625 13.671875 C-13.34482422 12.87265625 -12.52949219 12.0734375 -11.68945312 11.25 C-10.38911133 10.0125 -10.38911133 10.0125 -9.0625 8.75 C-8.19947266 7.90953125 -7.33644531 7.0690625 -6.44726562 6.203125 C-4.30889685 4.12382718 -2.15975911 2.05703385 0 0 Z " fill="#E8710B" transform="translate(192,72)"/>
<path d="M0 0 C4.81655855 2.24342682 8.53769179 4.96185247 12 9.03515625 C12.70125 9.81890625 13.4025 10.60265625 14.125 11.41015625 C19.31620005 18.67783631 20.04023374 25.20831852 19 34.03515625 C16.50387753 43.99552902 11.3926973 50.03118926 2.8046875 55.41015625 C-3.78798022 58.81282346 -10.48351423 59.16427769 -17.640625 57.375 C-25.47923927 54.59782225 -32.29875555 49.6324475 -36 42.03515625 C-36.50917969 41.14441406 -37.01835938 40.25367188 -37.54296875 39.3359375 C-40.43475895 32.784831 -40.22106538 24.78557133 -38.015625 18.01171875 C-30.69462448 2.96299545 -16.7497012 -5.38694817 0 0 Z " fill="#FEFDFB" transform="translate(162,82.96484375)"/>
<path d="M0 0 C0.53326904 0.34571045 1.06653809 0.6914209 1.6159668 1.04760742 C2.32406494 1.49982666 3.03216309 1.9520459 3.76171875 2.41796875 C4.80912231 3.09122192 4.80912231 3.09122192 5.87768555 3.77807617 C12.86992989 7.80386508 21.76564163 8.10835718 29.52734375 6.46484375 C34.13428298 5.06206525 37.34918079 3.20829567 41 0 C41.66 0 42.32 0 43 0 C44.98711598 3.41210201 46.96328601 6.83041936 48.9375 10.25 C49.50146484 11.21808594 50.06542969 12.18617188 50.64648438 13.18359375 C51.18466797 14.11816406 51.72285156 15.05273438 52.27734375 16.015625 C53.02359009 17.30388184 53.02359009 17.30388184 53.78491211 18.61816406 C54.8858955 20.77633041 55.53778404 22.63383748 56 25 C42.53963543 34.07554884 28.16797028 37.6504803 12 36 C7.76783084 35.09455996 3.9581506 33.73706881 0 32 C-1.546875 31.32904297 -1.546875 31.32904297 -3.125 30.64453125 C-9.64465485 27.60474218 -14.89836639 24.071624 -20 19 C-19.00419922 18.24976563 -19.00419922 18.24976563 -17.98828125 17.484375 C-14.15088628 14.29407016 -10.69195273 10.7980488 -7.1875 7.25 C-6.49462891 6.55261719 -5.80175781 5.85523438 -5.08789062 5.13671875 C-3.38962252 3.42673845 -1.69374494 1.71445866 0 0 Z " fill="#F9AC04" transform="translate(51,133)"/>
<path d="M0 0 C1.31267224 1.0364365 2.61434345 2.08838486 3.875 3.1875 C2.58575644 6.58952433 1.1097924 9.69314554 -0.7265625 12.83203125 C-1.21640625 13.67314453 -1.70625 14.51425781 -2.2109375 15.38085938 C-2.97277344 16.67733398 -2.97277344 16.67733398 -3.75 18 C-4.265625 18.88365234 -4.78125 19.76730469 -5.3125 20.67773438 C-6.58031114 22.84944789 -7.85122348 25.0192818 -9.125 27.1875 C-12.1384205 26.05045639 -14.49122239 24.94086043 -17.1875 23.125 C-23.66158411 18.85485941 -31.63590407 19.48346309 -39.125 20.1875 C-42.5340641 21.40034011 -45.25063261 23.01180613 -48.125 25.1875 C-49.45809318 26.18782012 -50.79139734 27.18785921 -52.125 28.1875 C-55.16594153 25.29119567 -58.17895095 22.36740886 -61.1875 19.4375 C-62.05439453 18.6125 -62.92128906 17.7875 -63.81445312 16.9375 C-64.62978516 16.13828125 -65.44511719 15.3390625 -66.28515625 14.515625 C-67.04449463 13.7824707 -67.80383301 13.04931641 -68.58618164 12.29394531 C-70.125 10.1875 -70.125 10.1875 -69.95141602 8.01464844 C-67.02861042 1.55252819 -58.53165827 -2.52237739 -52.2265625 -4.91015625 C-34.9274763 -10.86873038 -15.50140897 -10.81800456 0 0 Z " fill="#F9AB03" transform="translate(103.125,63.8125)"/>
<path d="M0 0 C0.33 0.99 0.66 1.98 1 3 C-1.97 5.475 -1.97 5.475 -5 8 C-5 5 -5 5 -2.5 2.3125 C-1.675 1.549375 -0.85 0.78625 0 0 Z " fill="#E97A18" transform="translate(32,72)"/>
</svg>
